FFmpeg version SVN-r25716, Copyright (c) 2000-2010 the FFmpeg developers  built on Nov 10 2010 12:23:18 with gcc 4.1.2 20080704 (Red Hat 4.1.2-48)  configuration: --enable-libmp3lame --enable-shared --disable-mmx --arch=x86_64  libavutil     50.33. 0 / 50.33. 0  libavcore      0.12. 1 /  0.12. 1  libavcodec    52.94. 4 / 52.94. 4  libavformat   52.84. 0 / 52.84. 0  libavdevice   52. 2. 2 / 52. 2. 2  libavfilter    1.59. 0 /  1.59. 0  libswscale     0.12. 0 /  0.12. 0Input #0, avi, from '/RAID10/data/converted_video_files/43418.avi':  Metadata:    encoder         : MEncoder SVN-r30881(20100311-gcc4.3.3)  Duration: 00:00:18.01, start: 0.000000, bitrate: 2300 kb/s    Stream #0.0: Video: mpeg4, yuv420p, 854x480 [PAR 1:1 DAR 427:240], PAR 491520:491477 DAR 2048:1151, 29.97 tbr, 29.97 tbn, 29.97 tbc    Stream #0.1: Audio: mp3, 44100 Hz, 2 channels, s16, 128 kb/s[buffer @ 0x1abb3f30] w:854 h:480 pixfmt:yuv420pOutput #0, flv, to '/RAID10/data/converted_video_files/43418.flv':  Metadata:    encoder         : Lavf52.84.0    Stream #0.0: Video: flv, yuv420p, 854x480 [PAR 1:1 DAR 427:240], q=2-31, 600 kb/s, 1k tbn, 24 tbc    Stream #0.1: Audio: libmp3lame, 22050 Hz, 2 channels, s16, 96 kb/sStream mapping:  Stream #0.0 -> #0.0  Stream #0.1 -> #0.1Press [q] to stop encodingframe=   39 fps=  0 q=10.4 size=     562kB time=1.67 bitrate=2763.7kbits/s dup=0 drop=9    frame=   75 fps= 72 q=20.5 size=     702kB time=3.17 bitrate=1814.9kbits/s dup=0 drop=18    frame=  121 fps= 77 q=13.6 size=     864kB time=5.08 bitrate=1392.2kbits/s dup=0 drop=30    frame=  158 fps= 77 q=22.1 size=     993kB time=6.62 bitrate=1227.5kbits/s dup=0 drop=39    frame=  193 fps= 75 q=13.0 size=    1120kB time=8.08 bitrate=1135.2kbits/s dup=0 drop=48    frame=  237 fps= 77 q=27.2 size=    1259kB time=9.92 bitrate=1040.0kbits/s dup=0 drop=59    frame=  281 fps= 78 q=21.0 size=    1421kB time=11.75 bitrate= 990.6kbits/s dup=0 drop=70    frame=  323 fps= 79 q=19.6 size=    1555kB time=13.50 bitrate= 943.8kbits/s dup=0 drop=80    frame=  353 fps= 77 q=19.9 size=    1673kB time=14.75 bitrate= 929.4kbits/s dup=0 drop=88    frame=  400 fps= 78 q=18.4 size=    1840kB time=16.71 bitrate= 901.9kbits/s dup=0 drop=99    frame=  433 fps= 79 q=17.6 Lsize=    1966kB time=17.87 bitrate= 901.1kbits/s dup=0 drop=107    video:1738kB audio:209kB global headers:0kB muxing overhead 0.912047%